<?xml version="1.0" encoding="UTF-8" standalone="no"?>
<!-- Created with Inkscape (http://www.inkscape.org/) -->

<svg
   xmlns:dc="http://purl.org/dc/elements/1.1/"
   xmlns:cc="http://creativecommons.org/ns#"
   xmlns:rdf="http://www.w3.org/1999/02/22-rdf-syntax-ns#"
   xmlns:svg="http://www.w3.org/2000/svg"
   xmlns="http://www.w3.org/2000/svg"
   xmlns:sodipodi="http://sodipodi.sourceforge.net/DTD/sodipodi-0.dtd"
   xmlns:inkscape="http://www.inkscape.org/namespaces/inkscape"
   id="svg4155"
   version="1.1"
   inkscape:version="0.91 r13725"
   xml:space="preserve"
   width="494.29251"
   height="354.2764"
   viewBox="0 0 494.29251 354.2764"
   sodipodi:docname="tcpip-layers.svg"><metadata
     id="metadata4161"><rdf:RDF><cc:Work
         rdf:about=""><dc:format>image/svg+xml</dc:format><dc:type
           rdf:resource="http://purl.org/dc/dcmitype/StillImage" /><dc:title></dc:title></cc:Work></rdf:RDF></metadata><defs
     id="defs4159"><clipPath
       clipPathUnits="userSpaceOnUse"
       id="clipPath4169"><path
         d="m -53.28,702.01 576,0 0,-738 -576,0 0,738 z"
         id="path4171"
         inkscape:connector-curvature="0" /></clipPath><clipPath
       clipPathUnits="userSpaceOnUse"
       id="clipPath4177"><path
         d="m -26.28,675 522,0 0,-684 -522,0 0,684 z"
         id="path4179"
         inkscape:connector-curvature="0" /></clipPath><clipPath
       clipPathUnits="userSpaceOnUse"
       id="clipPath4185"><path
         d="m 0.03,666 469.02,0 0,-665.97 -469.02,0 0,665.97 z"
         id="path4187"
         inkscape:connector-curvature="0" /></clipPath><clipPath
       clipPathUnits="userSpaceOnUse"
       id="clipPath4205"><path
         d="m 36.719,606 396,0 0,-307.2 -396,0 0,307.2 z"
         id="path4207"
         inkscape:connector-curvature="0"
         style="clip-rule:evenodd" /></clipPath><clipPath
       clipPathUnits="userSpaceOnUse"
       id="clipPath4213"><path
         d="m 0.03,666 469.02,0 0,-665.97 -469.02,0 0,665.97 z"
         id="path4215"
         inkscape:connector-curvature="0" /></clipPath><clipPath
       clipPathUnits="userSpaceOnUse"
       id="clipPath4227"><path
         d="m 36.719,606 396,0 0,-307.2 -396,0 0,307.2 z"
         id="path4229"
         inkscape:connector-curvature="0"
         style="clip-rule:evenodd" /></clipPath><clipPath
       clipPathUnits="userSpaceOnUse"
       id="clipPath4235"><path
         d="m 0.03,666 469.02,0 0,-665.97 -469.02,0 0,665.97 z"
         id="path4237"
         inkscape:connector-curvature="0" /></clipPath><clipPath
       clipPathUnits="userSpaceOnUse"
       id="clipPath4281"><path
         d="m 36.719,606 396,0 0,-307.2 -396,0 0,307.2 z"
         id="path4283"
         inkscape:connector-curvature="0"
         style="clip-rule:evenodd" /></clipPath><clipPath
       clipPathUnits="userSpaceOnUse"
       id="clipPath4289"><path
         d="m 0.03,666 469.02,0 0,-665.97 -469.02,0 0,665.97 z"
         id="path4291"
         inkscape:connector-curvature="0" /></clipPath><clipPath
       clipPathUnits="userSpaceOnUse"
       id="clipPath4307"><path
         d="m 36.719,606 396,0 0,-307.2 -396,0 0,307.2 z"
         id="path4309"
         inkscape:connector-curvature="0"
         style="clip-rule:evenodd" /></clipPath><clipPath
       clipPathUnits="userSpaceOnUse"
       id="clipPath4315"><path
         d="m 0.03,666 469.02,0 0,-665.97 -469.02,0 0,665.97 z"
         id="path4317"
         inkscape:connector-curvature="0" /></clipPath><clipPath
       clipPathUnits="userSpaceOnUse"
       id="clipPath4343"><path
         d="m 36.719,606 396,0 0,-307.2 -396,0 0,307.2 z"
         id="path4345"
         inkscape:connector-curvature="0"
         style="clip-rule:evenodd" /></clipPath><clipPath
       clipPathUnits="userSpaceOnUse"
       id="clipPath4351"><path
         d="m 0.03,666 469.02,0 0,-665.97 -469.02,0 0,665.97 z"
         id="path4353"
         inkscape:connector-curvature="0" /></clipPath><clipPath
       clipPathUnits="userSpaceOnUse"
       id="clipPath4369"><path
         d="m 36.719,606 396,0 0,-307.2 -396,0 0,307.2 z"
         id="path4371"
         inkscape:connector-curvature="0"
         style="clip-rule:evenodd" /></clipPath><clipPath
       clipPathUnits="userSpaceOnUse"
       id="clipPath4377"><path
         d="m 0.03,666 469.02,0 0,-665.97 -469.02,0 0,665.97 z"
         id="path4379"
         inkscape:connector-curvature="0" /></clipPath><clipPath
       clipPathUnits="userSpaceOnUse"
       id="clipPath4399"><path
         d="m 36.719,606 396,0 0,-307.2 -396,0 0,307.2 z"
         id="path4401"
         inkscape:connector-curvature="0"
         style="clip-rule:evenodd" /></clipPath><clipPath
       clipPathUnits="userSpaceOnUse"
       id="clipPath4407"><path
         d="m 0.03,666 469.02,0 0,-665.97 -469.02,0 0,665.97 z"
         id="path4409"
         inkscape:connector-curvature="0" /></clipPath><clipPath
       clipPathUnits="userSpaceOnUse"
       id="clipPath4489"><path
         d="m 36.719,606 396,0 0,-307.2 -396,0 0,307.2 z"
         id="path4491"
         inkscape:connector-curvature="0"
         style="clip-rule:evenodd" /></clipPath><clipPath
       clipPathUnits="userSpaceOnUse"
       id="clipPath4497"><path
         d="m 0.03,666 469.02,0 0,-665.97 -469.02,0 0,665.97 z"
         id="path4499"
         inkscape:connector-curvature="0" /></clipPath><clipPath
       clipPathUnits="userSpaceOnUse"
       id="clipPath4511"><path
         d="m -53.28,702.01 576,0 0,-738 -576,0 0,738 z"
         id="path4513"
         inkscape:connector-curvature="0" /></clipPath><clipPath
       clipPathUnits="userSpaceOnUse"
       id="clipPath4519"><path
         d="m -26.28,675 522,0 0,-684 -522,0 0,684 z"
         id="path4521"
         inkscape:connector-curvature="0" /></clipPath><clipPath
       clipPathUnits="userSpaceOnUse"
       id="clipPath4527"><path
         d="m 0.03,666 469.02,0 0,-665.97 -469.02,0 0,665.97 z"
         id="path4529"
         inkscape:connector-curvature="0" /></clipPath><clipPath
       clipPathUnits="userSpaceOnUse"
       id="clipPath4587"><path
         d="m 0.03,666 469.02,0 0,-665.97 -469.02,0 0,665.97 z"
         id="path4589"
         inkscape:connector-curvature="0" /></clipPath></defs><sodipodi:namedview
     pagecolor="#ffffff"
     bordercolor="#666666"
     borderopacity="1"
     objecttolerance="10"
     gridtolerance="10"
     guidetolerance="10"
     inkscape:pageopacity="0"
     inkscape:pageshadow="2"
     inkscape:window-width="1280"
     inkscape:window-height="971"
     id="namedview4157"
     showgrid="false"
     fit-margin-top="0"
     fit-margin-left="0"
     fit-margin-right="0"
     fit-margin-bottom="0"
     inkscape:zoom="0.96816817"
     inkscape:cx="304.19749"
     inkscape:cy="123.64647"
     inkscape:window-x="1366"
     inkscape:window-y="27"
     inkscape:window-maximized="1"
     inkscape:current-layer="g4183" /><g
     id="g4163"
     inkscape:groupmode="layer"
     inkscape:label="Dataandcomputercommunications"
     transform="matrix(1.25,0,0,-1.25,-46.11875,729.51015)"><g
       id="g4165"><g
         id="g4167"
         clip-path="url(#clipPath4169)"><g
           id="g4173"><g
             id="g4175"
             clip-path="url(#clipPath4177)"><g
               id="g4181"><g
                 id="g4183"
                 clip-path="url(#clipPath4185)" /></g></g></g></g></g><path
       d="m 188.53,358.07 85.046,0 0,31.892 -85.046,0 0,-31.892 z m 85.05,0 z"
       style="fill:#e2f4fd;fill-opacity:1;fill-rule:nonzero;stroke:#000000;stroke-width:0.88599998;stroke-linecap:butt;stroke-linejoin:miter;stroke-miterlimit:4;stroke-dasharray:none;stroke-opacity:1"
       id="path4199"
       inkscape:connector-curvature="0" /><g
       id="g4201"><g
         id="g4203"
         clip-path="url(#clipPath4205)"><g
           id="g4209"><g
             id="g4211"
             clip-path="url(#clipPath4213)"><path
               d="m 346.81,446.66 85.046,0 0,31.892 -85.046,0 0,-31.892 z"
               style="fill:#e2f4fd;fill-opacity:1;fill-rule:nonzero;stroke:none"
               id="path4217"
               inkscape:connector-curvature="0" /><path
               d="m 346.81,446.66 85.046,0 0,31.892 -85.046,0 0,-31.892 z m 85.05,0 z"
               style="fill:none;stroke:#000000;stroke-width:0.88599998;stroke-linecap:butt;stroke-linejoin:miter;stroke-miterlimit:4;stroke-dasharray:none;stroke-opacity:1"
               id="path4219"
               inkscape:connector-curvature="0" /></g></g></g></g><path
       d="m 37.338,446.66 85.046,0 0,31.892 -85.046,0 0,-31.892 z"
       style="fill:#e2f4fd;fill-opacity:1;fill-rule:nonzero;stroke:none"
       id="path4221"
       inkscape:connector-curvature="0" /><g
       id="g4223"><g
         id="g4225"
         clip-path="url(#clipPath4227)"><g
           id="g4231"><g
             id="g4233"
             clip-path="url(#clipPath4235)"><path
               d="m 37.338,446.66 85.046,0 0,31.892 -85.046,0 0,-31.892 z m 85.052,0 z"
               style="fill:none;stroke:#000000;stroke-width:0.88599998;stroke-linecap:butt;stroke-linejoin:miter;stroke-miterlimit:4;stroke-dasharray:none;stroke-opacity:1"
               id="path4239"
               inkscape:connector-curvature="0" /></g></g></g></g><text
       transform="matrix(1,0,0,-1,211.72,392.33)"
       style="font-variant:normal;font-weight:bold;font-size:10.63099957px;font-family:'Times New Roman';-inkscape-font-specification:Times-Bold;writing-mode:lr-tb;fill:#000000;fill-opacity:1;fill-rule:nonzero;stroke:none"
       id="text4241"><tspan
         x="0 7.6755819 12.991082 18.901918 22.442041 27.162205 31.882368 34.540119"
         y="0"
         sodipodi:role="line"
         id="tspan4243">Router J</tspan></text>
<g
       id="g4245"
       transform="translate(188.56,321.06)"><path
         d="M 0,0 -36.85,0 M 116.12,0 85.04,0 M 0,15.75 l 42.523,0 0,21.262 L 0,37.012 0,15.75 Z m 42.52,0 z m 0,0 42.523,0 0,21.262 -42.523,0 0,-21.262 z m 42.52,0 z"
         style="fill:none;stroke:#000000;stroke-width:0.88599998;stroke-linecap:butt;stroke-linejoin:miter;stroke-miterlimit:4;stroke-dasharray:none;stroke-opacity:1"
         id="path4247"
         inkscape:connector-curvature="0" /></g><text
       transform="matrix(1,0,0,-1,69.231,490.69)"
       style="font-variant:normal;font-weight:bold;font-size:10.63099957px;font-family:'Times New Roman';-inkscape-font-specification:Times-Bold;writing-mode:lr-tb;fill:#000000;fill-opacity:1;fill-rule:nonzero;stroke:none"
       id="text4249"><tspan
         x="0 7.0908771 14.766459"
         y="0"
         sodipodi:role="line"
         id="tspan4251">TCP</tspan><tspan
         x="5.3154998 9.4509592"
         y="31.893"
         sodipodi:role="line"
         id="tspan4253">IP</tspan><tspan
         x="-8.1858702 -1.690329 4.0610418 9.3765421 13.512001 16.467419 21.187584 26.503082 301.31442 307.80997 313.56134 318.87683 323.0123 325.96771 330.6879 336.00339"
         y="90.363503"
         sodipodi:role="line"
         id="tspan4255">PhysicalPhysical</tspan><tspan
         x="156.52022 160.65567"
         y="120.48112"
         sodipodi:role="line"
         id="tspan4257">IP</tspan><tspan
         x="125.79662 133.25958 140.93517 147.43071 150.08846 168.32062 175.78358 183.45917 189.95471 192.61246"
         y="147.05862"
         sodipodi:role="line"
         id="tspan4259">NAP 1NAP 2</tspan></text>
<path
       d="m 188.56,315.55 42.523,0 0,21.262 -42.523,0 0,-21.262 z m 42.52,0 z m 0,0 42.523,0 0,21.262 -42.523,0 0,-21.262 z m 42.52,0 z"
       style="fill:none;stroke:#000000;stroke-width:0.88599998;stroke-linecap:butt;stroke-linejoin:miter;stroke-miterlimit:4;stroke-dasharray:none;stroke-opacity:1"
       id="path4261"
       inkscape:connector-curvature="0" /><text
       transform="matrix(1,0,0,-1,191,322.37)"
       style="font-variant:normal;font-weight:bold;font-size:10.63099957px;font-family:'Times New Roman';-inkscape-font-specification:Times-Bold;writing-mode:lr-tb;fill:#000000;fill-opacity:1;fill-rule:nonzero;stroke:none"
       id="text4263"><tspan
         x="0 6.4955411 12.246912 17.562412 21.69787 24.65329 29.373453 34.688953 42.523998 49.019543 54.770912 60.086411 64.22187 67.177292 71.897453 77.212952"
         y="0"
         sodipodi:role="line"
         id="tspan4265">PhysicalPhysical</tspan></text>
<text
       transform="matrix(1,0,0,-1,50.755,432.77)"
       style="font-variant:normal;font-weight:bold;font-size:8.85900021px;font-family:'Times New Roman';-inkscape-font-specification:Times-Bold;writing-mode:lr-tb;fill:#000000;fill-opacity:1;fill-rule:nonzero;stroke:none"
       id="text4267"><tspan
         x="0 6.3961978 10.329594 13.279641 19.58725 24.016748 27.950146 32.875748 35.0905 39.52 43.453396 47.386791 51.320187 54.766338"
         y="0"
         sodipodi:role="line"
         id="tspan4269">Network access</tspan><tspan
         x="7.9022279 12.827832 16.601767 21.031265 23.981314 28.410812 32.344208 36.773708 39.236511 41.45126 45.88076"
         y="10.6308"
         sodipodi:role="line"
         id="tspan4271">protocol #1</tspan></text>
<text
       transform="matrix(1,0,0,-1,63.028,576.59)"
       style="font-variant:normal;font-weight:bold;font-size:10.63099957px;font-family:'Times New Roman';-inkscape-font-specification:Times-Bold;writing-mode:lr-tb;fill:#000000;fill-opacity:1;fill-rule:nonzero;stroke:none"
       id="text4273"><tspan
         x="0 8.2709179 13.586418 17.721876 21.261999 23.335045 31.010628"
         y="0"
         sodipodi:role="line"
         id="tspan4275">Host A </tspan></text>
<g
       id="g4277"><g
         id="g4279"
         clip-path="url(#clipPath4281)"><g
           id="g4285"><g
             id="g4287"
             clip-path="url(#clipPath4289)"><g
               id="g4293"
               transform="translate(122.39,510.44)"><path
                 d="m 0,0 0,63.79 -85.052,0 0,-63.79 9.188,0 m 44.524,0 11.87,0 m -45.812,0 23.377,0 m -22.771,29.83 c 7.894,0 14.295,3.59 14.295,8.02 0,4.43 -6.401,8.02 -14.295,8.02 -7.894,0 -14.295,-3.59 -14.295,-8.02 0,-4.43 6.401,-8.02 14.295,-8.02 z m 38.278,8.78 c 13.488,0 24.428,3.73 24.428,8.35 0,4.61 -10.94,8.35 -24.428,8.35 -13.492,0 -24.431,-3.74 -24.431,-8.35 0,-4.62 10.939,-8.35 24.431,-8.35 z"
                 style="fill:none;stroke:#000000;stroke-width:0.88599998;stroke-linecap:butt;stroke-linejoin:miter;stroke-miterlimit:4;stroke-dasharray:none;stroke-opacity:1"
                 id="path4295"
                 inkscape:connector-curvature="0" /></g></g></g></g></g><text
       transform="matrix(1,0,0,-1,86.137,554.43)"
       style="font-variant:normal;font-weight:bold;font-size:7.08720016px;font-family:'Times New Roman';-inkscape-font-specification:Times-Bold;writing-mode:lr-tb;fill:#000000;fill-opacity:1;fill-rule:nonzero;stroke:none"
       id="text4297"><tspan
         x="0 4.9397783 8.8802614 12.820745 14.592545"
         y="0"
         sodipodi:role="line"
         id="tspan4299">App X</tspan><tspan
         x="-38.079525 -33.139748 -29.199265 -25.258781 -23.876778"
         y="8.6889076"
         sodipodi:role="line"
         id="tspan4301">App Y</tspan></text>
<g
       id="g4303"><g
         id="g4305"
         clip-path="url(#clipPath4307)"><g
           id="g4311"><g
             id="g4313"
             clip-path="url(#clipPath4315)"><g
               id="g4319"
               transform="translate(80.485,510.44)"><path
                 d="m 0,0 -23.395,0 m 45.84,0 -11.88,0 m -44.524,0 -9.188,0 0,-31.89 85.052,0 0,31.89 -8.9,0 m -76.152,-95.67 85.046,0 0,31.892 -85.046,0 0,-31.892 z m 85.052,0 z m -70.582,92.72 c 2.936,0 5.315,1.19 5.315,2.66 0,1.47 -2.379,2.66 -5.315,2.66 -2.936,0 -5.316,-1.19 -5.316,-2.66 0,-1.47 2.38,-2.66 5.316,-2.66 z m 33.96,0 c 2.935,0 5.315,1.19 5.315,2.66 0,1.47 -2.38,2.66 -5.315,2.66 -2.936,0 -5.315,-1.19 -5.315,-2.66 0,-1.47 2.379,-2.66 5.315,-2.66 z m 22.442,0 c 2.94,0 5.32,1.19 5.32,2.66 0,1.47 -2.38,2.66 -5.32,2.66 -2.93,0 -5.32,-1.19 -5.32,-2.66 0,-1.47 2.39,-2.66 5.32,-2.66 z"
                 style="fill:none;stroke:#000000;stroke-width:0.88599998;stroke-linecap:butt;stroke-linejoin:miter;stroke-miterlimit:4;stroke-dasharray:none;stroke-opacity:1"
                 id="path4321"
                 inkscape:connector-curvature="0" /></g></g></g></g></g><text
       transform="matrix(1,0,0,-1,378.71,490.69)"
       style="font-variant:normal;font-weight:bold;font-size:10.63099957px;font-family:'Times New Roman';-inkscape-font-specification:Times-Bold;writing-mode:lr-tb;fill:#000000;fill-opacity:1;fill-rule:nonzero;stroke:none"
       id="text4323"><tspan
         x="0 7.0908771 14.766459"
         y="0"
         sodipodi:role="line"
         id="tspan4325">TCP</tspan><tspan
         x="5.3154998 9.4509592"
         y="31.893"
         sodipodi:role="line"
         id="tspan4327">IP</tspan></text>
<text
       transform="matrix(1,0,0,-1,360.23,432.77)"
       style="font-variant:normal;font-weight:bold;font-size:8.85900021px;font-family:'Times New Roman';-inkscape-font-specification:Times-Bold;writing-mode:lr-tb;fill:#000000;fill-opacity:1;fill-rule:nonzero;stroke:none"
       id="text4329"><tspan
         x="0 6.3961978 10.329594 13.279641 19.58725 24.016748 27.950146 32.875748 35.0905 39.52 43.453396 47.386791 51.320187 54.766338"
         y="0"
         sodipodi:role="line"
         id="tspan4331">Network access</tspan><tspan
         x="7.9022279 12.827832 16.601767 21.031265 23.981314 28.410812 32.344208 36.773708 39.236511 41.45126 45.88076"
         y="10.6308"
         sodipodi:role="line"
         id="tspan4333">protocol #2</tspan></text>
<text
       transform="matrix(1,0,0,-1,372.5,576.59)"
       style="font-variant:normal;font-weight:bold;font-size:10.63099957px;font-family:'Times New Roman';-inkscape-font-specification:Times-Bold;writing-mode:lr-tb;fill:#000000;fill-opacity:1;fill-rule:nonzero;stroke:none"
       id="text4335"><tspan
         x="0 8.2709179 13.586418 17.721876 21.261999 23.91975 31.010628"
         y="0"
         sodipodi:role="line"
         id="tspan4337">Host B </tspan></text>
<g
       id="g4339"><g
         id="g4341"
         clip-path="url(#clipPath4343)"><g
           id="g4347"><g
             id="g4349"
             clip-path="url(#clipPath4351)"><g
               id="g4355"
               transform="translate(422.97,510.44)"><path
                 d="m 0,0 8.89,0 0,63.79 -85.05,0 0,-63.79 9.19,0 m 44.52,0 11.88,0 m -45.84,0 23.4,0 m -22.77,29.83 c 7.89,0 14.29,3.59 14.29,8.02 0,4.43 -6.4,8.02 -14.29,8.02 -7.9,0 -14.3,-3.59 -14.3,-8.02 0,-4.43 6.4,-8.02 14.3,-8.02 z m 38.28,8.78 c 13.49,0 24.43,3.73 24.43,8.35 0,4.61 -10.94,8.35 -24.43,8.35 -13.5,0 -24.43,-3.74 -24.43,-8.35 0,-4.62 10.93,-8.35 24.43,-8.35 z"
                 style="fill:none;stroke:#000000;stroke-width:0.88599998;stroke-linecap:butt;stroke-linejoin:miter;stroke-miterlimit:4;stroke-dasharray:none;stroke-opacity:1"
                 id="path4357"
                 inkscape:connector-curvature="0" /></g></g></g></g></g><text
       transform="matrix(1,0,0,-1,395.81,554.43)"
       style="font-variant:normal;font-weight:bold;font-size:7.08720016px;font-family:'Times New Roman';-inkscape-font-specification:Times-Bold;writing-mode:lr-tb;fill:#000000;fill-opacity:1;fill-rule:nonzero;stroke:none"
       id="text4359"><tspan
         x="0 4.9397783 8.8802614 12.820745 14.202749"
         y="0"
         sodipodi:role="line"
         id="tspan4361">App Y</tspan><tspan
         x="-38.469322 -33.529545 -29.58906 -25.648577 -23.876778"
         y="8.6889076"
         sodipodi:role="line"
         id="tspan4363">App X</tspan></text>
<g
       id="g4365"><g
         id="g4367"
         clip-path="url(#clipPath4369)"><g
           id="g4373"><g
             id="g4375"
             clip-path="url(#clipPath4377)"><path
               d="m 346.81,414.77 85.046,0 0,31.892 -85.046,0 0,-31.892 z m 85.05,0 z m -70.58,92.72 c 2.94,0 5.32,1.19 5.32,2.66 0,1.47 -2.38,2.66 -5.32,2.66 -2.93,0 -5.31,-1.19 -5.31,-2.66 0,-1.47 2.38,-2.66 5.31,-2.66 z m 33.96,0 c 2.94,0 5.32,1.19 5.32,2.66 0,1.47 -2.38,2.66 -5.32,2.66 -2.93,0 -5.31,-1.19 -5.31,-2.66 0,-1.47 2.38,-2.66 5.31,-2.66 z m 22.45,0 c 2.93,0 5.31,1.19 5.31,2.66 0,1.47 -2.38,2.66 -5.31,2.66 -2.94,0 -5.32,-1.19 -5.32,-2.66 0,-1.47 2.38,-2.66 5.32,-2.66 z"
               style="fill:none;stroke:#000000;stroke-width:0.88599998;stroke-linecap:butt;stroke-linejoin:miter;stroke-miterlimit:4;stroke-dasharray:none;stroke-opacity:1"
               id="path4381"
               inkscape:connector-curvature="0" /></g></g></g></g><g
       id="g4383"
       transform="translate(144.44,395.95)"><path
         d="M 0,0 -50.624,-22.42"
         style="fill:none;stroke:#000000;stroke-width:0.354;stroke-linecap:butt;stroke-linejoin:miter;stroke-miterlimit:4;stroke-dasharray:none;stroke-opacity:1"
         id="path4385"
         inkscape:connector-curvature="0" /></g><g
       id="g4387"
       transform="translate(94.037,373.63)"><path
         d="M 0,0 0.817,-0.57 0.798,-0.6 -0.693,-0.66 c -0.485,-0.1 -0.971,-0.2 -1.456,-0.29 0.399,0.29 0.797,0.58 1.197,0.88 l 1.046,1.06 0.032,0 L 0,0"
         style="fill:#000000;fill-opacity:1;fill-rule:nonzero;stroke:none"
         id="path4389"
         inkscape:connector-curvature="0" /></g><g
       id="g4391"
       transform="translate(57.714,540.27)"><path
         d="m 0,0 -5.387,-27.48 m 17.199,30.14 14.962,-30.2 m 16.342,36.69 6.88,-36.62"
         style="fill:none;stroke:#000000;stroke-width:0.44299999;stroke-linecap:butt;stroke-linejoin:miter;stroke-miterlimit:4;stroke-dasharray:none;stroke-opacity:1"
         id="path4393"
         inkscape:connector-curvature="0" /></g><g
       id="g4395"><g
         id="g4397"
         clip-path="url(#clipPath4399)"><g
           id="g4403"><g
             id="g4405"
             clip-path="url(#clipPath4407)"><g
               id="g4411"
               transform="translate(389.96,510.44)"><path
                 d="M 0,0 -23.4,0 M 22.44,0 10.56,0 m -44.52,0 -9.19,0 0,-31.89 85.05,0 0,31.89 -8.89,0"
                 style="fill:none;stroke:#000000;stroke-width:0.88599998;stroke-linecap:butt;stroke-linejoin:miter;stroke-miterlimit:4;stroke-dasharray:none;stroke-opacity:1"
                 id="path4413"
                 inkscape:connector-curvature="0" /></g></g></g></g></g><g
       id="g4415"
       transform="translate(367.19,540.27)"><path
         d="M 0,0 -5.39,-27.48 M 29.23,9.45 28.13,-27.46 M 43.11,9.15 50,-27.47"
         style="fill:none;stroke:#000000;stroke-width:0.44299999;stroke-linecap:butt;stroke-linejoin:miter;stroke-miterlimit:4;stroke-dasharray:none;stroke-opacity:1"
         id="path4417"
         inkscape:connector-curvature="0" /></g><g
       id="g4419"
       transform="translate(98.363,307.55)"><path
         d="m 0,0 c -2.027,-2.28 -4.712,-3.67 -7.658,-3.67 -5.88,0 -10.723,5.53 -11.365,12.66 -5.797,0.69 -10.312,6.78 -10.312,14.2 0,7.88 5.12,14.27 11.437,14.27 0.07,0 0.14,0 0.21,0 1.278,8.34 8.147,14.7 16.424,14.7 3.191,0 6.151,-1 8.681,-2.64 2.2,6.44 8.79,11.12 16.58,11.12 9.6,0 17.37,-7.09 17.37,-15.83 0,-0.49 -0.05,-0.98 -0.1,-1.46 0.48,0.04 0.96,0.06 1.45,0.06 9.24,0 16.74,-7.15 16.74,-15.98 0,-4.77 -2.16,-9.05 -5.64,-11.98 -1.32,-7.56 -8.21,-13.32 -16.51,-13.32 -1.39,0 -2.73,0.14 -4.03,0.44 -2.98,-5.59 -9.69,-9.49 -17.49,-9.49 C 9.227,-6.92 3.447,-4.2 0,0 Z"
         style="fill:#b9e5fb;fill-opacity:1;fill-rule:nonzero;stroke:#000000;stroke-width:0.88599998;stroke-linecap:butt;stroke-linejoin:miter;stroke-miterlimit:3.86400008;stroke-dasharray:none;stroke-opacity:1"
         id="path4421"
         inkscape:connector-curvature="0" /></g><g
       id="g4423"
       transform="translate(331.06,307.55)"><path
         d="m 0,0 c -2.03,-2.28 -4.71,-3.67 -7.66,-3.67 -5.88,0 -10.72,5.53 -11.36,12.66 -5.8,0.69 -10.32,6.78 -10.32,14.2 0,7.88 5.13,14.27 11.44,14.27 0.07,0 0.14,0 0.21,0 1.28,8.34 8.15,14.7 16.43,14.7 3.19,0 6.15,-1 8.68,-2.64 2.2,6.44 8.79,11.12 16.58,11.12 9.59,0 17.37,-7.09 17.37,-15.83 0,-0.49 -0.06,-0.98 -0.1,-1.46 0.47,0.04 0.96,0.06 1.45,0.06 9.24,0 16.74,-7.15 16.74,-15.98 0,-4.77 -2.17,-9.05 -5.64,-11.98 C 52.49,7.89 45.61,2.13 37.31,2.13 35.91,2.13 34.57,2.27 33.28,2.57 30.3,-3.02 23.59,-6.92 15.79,-6.92 9.23,-6.92 3.45,-4.2 0,0 Z"
         style="fill:#b9e5fb;fill-opacity:1;fill-rule:nonzero;stroke:#000000;stroke-width:0.88599998;stroke-linecap:butt;stroke-linejoin:miter;stroke-miterlimit:3.86400008;stroke-dasharray:none;stroke-opacity:1"
         id="path4425"
         inkscape:connector-curvature="0" /></g><text
       transform="matrix(1,0,0,-1,89.71,330.9)"
       style="font-variant:normal;font-weight:bold;font-size:10.63099957px;font-family:'Times New Roman';-inkscape-font-specification:Times-Bold;writing-mode:lr-tb;fill:#000000;fill-opacity:1;fill-rule:nonzero;stroke:none"
       id="text4427"><tspan
         x="0 7.6755819 12.395746 15.935869 23.50514 28.820641 33.540806 39.451641 42.10939"
         y="0"
         sodipodi:role="line"
         id="tspan4429">Network 1</tspan><tspan
         x="13.682097 17.222219 24.897802 30.213303"
         y="12.406377"
         sodipodi:role="line"
         id="tspan4431">(N1)</tspan><tspan
         x="232.70197 240.37755 245.0977 248.63783 256.20709 261.52261 266.24277 272.15359 274.81134"
         y="0"
         sodipodi:role="line"
         id="tspan4433">Network 2</tspan><tspan
         x="246.38405 249.92418 257.59976 262.91525"
         y="12.406377"
         sodipodi:role="line"
         id="tspan4435">(N2)</tspan></text>
<g
       id="g4437"
       transform="translate(80.649,393.51)"><path
         d="M 0,0 13.781,-34.03 M 309.471,0 283.491,-27.96"
         style="fill:none;stroke:#000000;stroke-width:0.88599998;stroke-linecap:butt;stroke-linejoin:miter;stroke-miterlimit:4;stroke-dasharray:none;stroke-opacity:1"
         id="path4439"
         inkscape:connector-curvature="0" /></g><g
       id="g4441"
       transform="translate(364.92,419.49)"><path
         d="M 0,0 -94.44,-75.59"
         style="fill:none;stroke:#000000;stroke-width:0.44299999;stroke-linecap:butt;stroke-linejoin:miter;stroke-miterlimit:4;stroke-dasharray:3.544, 1.772;stroke-dashoffset:0;stroke-opacity:1"
         id="path4443"
         inkscape:connector-curvature="0" /></g><text
       transform="matrix(1,0,0,-1,136.06,471.47)"
       style="font-variant:normal;font-weight:bold;font-size:8.85900021px;font-family:'Times New Roman';-inkscape-font-specification:Times-Bold;writing-mode:lr-tb;fill:#000000;fill-opacity:1;fill-rule:nonzero;stroke:none"
       id="text4445"><tspan
         x="0 6.892302 9.3551044 13.784604 18.710209 23.139708 25.60251 27.817261 30.280062 35.205666 38.155712 42.089108 45.889622 50.815224 54.748619"
         y="0"
         sodipodi:role="line"
         id="tspan4447">Global internet</tspan><tspan
         x="14.404734 18.834234 23.759838 28.685442 32.459377 36.392773 39.838924"
         y="10.6308"
         sodipodi:role="line"
         id="tspan4449">address</tspan><tspan
         x="-80.97126 -50.632729 229.29927 262.87134 284.30658 -23.529505"
         y="-42.87756"
         sodipodi:role="line"
         id="tspan4451">122463</tspan><tspan
         x="-11.109186 -6.1835818 -1.257978 3.6676259 8.5932302 12.526626 15.476673 21.784281 26.213781 30.147177 35.072781 37.287533 41.71703 44.667076 47.617126 52.046623 55.980022 60.905624 68.285172 72.218567 77.144173"
         y="66.699409"
         sodipodi:role="line"
         id="tspan4453">Subnetwork attachment</tspan><tspan
         x="9.0981932 14.023797 18.453297 20.9161 25.841703 28.79175 31.0065 35.436001 40.361603 45.287209 49.061142 52.994537 56.440689"
         y="77.330208"
         sodipodi:role="line"
         id="tspan4455">point address</tspan><tspan
         x="130.36905 136.278 140.7075 145.13699 147.59979 151.53319 155.96269 158.42549 160.64024 164.57364 169.00314 173.92874 178.85435 182.78775 186.72115 189.67119 192.13399 196.56349"
         y="60.161469"
         sodipodi:role="line"
         id="tspan4457">Logical connection</tspan><tspan
         x="128.3049 131.25494 135.18834 137.40309 141.69971 143.91446 146.12921 148.34395 152.77345 155.23625 159.16965 162.11971 167.0453 171.47481 173.93761 176.15236 180.08575 182.54855 186.32249 190.25589 195.18149 197.64429 200.59433"
         y="70.792267"
         sodipodi:role="line"
         id="tspan4459">(e.g., virtual circuit)</tspan><tspan
         x="68.001686 73.910637 78.340134 82.769638 85.232437 89.165833 93.595337 96.058136 98.272888 102.20628 106.63578 111.56139 116.48699 120.42039 124.35378 127.30383 129.76663 134.19614"
         y="-34.948753"
         sodipodi:role="line"
         id="tspan4461">Logical connection</tspan><tspan
         x="70.216431 73.166481 79.075432 85.471634 90.884483 93.099228 97.032623 101.46213 106.38773 111.31333 115.24673 119.18013 122.13017 124.59298 129.02248 133.94807"
         y="-24.317955"
         sodipodi:role="line"
         id="tspan4463">(TCP connection)</tspan><tspan
         x="159.77206 165.00774 169.43724 173.37064"
         y="-76.462029"
         sodipodi:role="line"
         id="tspan4465">Port</tspan><tspan
         x="128.48207 131.43213 134.87828 138.81168 142.65648 147.08598 149.54878 153.48218 157.41557 159.63033 164.05981 167.99321 171.92662 175.86002 179.30617 182.7523 184.96706 189.89267 194.32216 196.78497 201.71057 204.66061"
         y="-65.83123"
         sodipodi:role="line"
         id="tspan4467">(service access point)</tspan></text>
<g
       id="g4469"
       transform="translate(144.83,467.92)"><path
         d="M 0,0 -33.08,-6.49"
         style="fill:none;stroke:#000000;stroke-width:0.354;stroke-linecap:butt;stroke-linejoin:miter;stroke-miterlimit:4;stroke-dasharray:none;stroke-opacity:1"
         id="path4471"
         inkscape:connector-curvature="0" /></g><g
       id="g4473"
       transform="translate(111.99,461.47)"><path
         d="m 0,0 0.67,-0.73 -0.02,-0.03 -1.47,0.28 c -0.5,0.01 -0.99,0.02 -1.48,0.03 0.45,0.2 0.9,0.39 1.36,0.59 L 0.31,0.95 0.34,0.94 0,0"
         style="fill:#000000;fill-opacity:1;fill-rule:nonzero;stroke:none"
         id="path4475"
         inkscape:connector-curvature="0" /></g><g
       id="g4477"
       transform="translate(318.06,534.34)"><path
         d="M 0,0 36.03,-20.08"
         style="fill:none;stroke:#000000;stroke-width:0.354;stroke-linecap:butt;stroke-linejoin:miter;stroke-miterlimit:4;stroke-dasharray:none;stroke-opacity:1"
         id="path4479"
         inkscape:connector-curvature="0" /></g><g
       id="g4481"
       transform="translate(353.88,514.38)"><path
         d="m 0,0 -0.04,1 0.03,0 0.95,-1.16 C 1.31,-0.49 1.68,-0.81 2.05,-1.14 1.57,-1 1.1,-0.86 0.63,-0.72 L -0.85,-0.52 -0.87,-0.5 0,0"
         style="fill:#000000;fill-opacity:1;fill-rule:nonzero;stroke:none"
         id="path4483"
         inkscape:connector-curvature="0" /></g><g
       id="g4485"><g
         id="g4487"
         clip-path="url(#clipPath4489)"><g
           id="g4493"><g
             id="g4495"
             clip-path="url(#clipPath4497)"><path
               d="m 37.338,393.51 85.046,0 0,21.262 -85.046,0 0,-21.262 z m 85.052,0 z m 224.45,0 85.046,0 0,21.262 -85.046,0 0,-21.262 z m 85.04,0 z"
               style="fill:none;stroke:#000000;stroke-width:0.88599998;stroke-linecap:butt;stroke-linejoin:miter;stroke-miterlimit:4;stroke-dasharray:none;stroke-opacity:1"
               id="path4501"
               inkscape:connector-curvature="0" /></g></g></g></g><g
       id="g4503"
       transform="translate(107.87,510.2)"><path
         d="M 0,0 C 14.47,-20.67 220.3,-25.69 253.07,0"
         style="fill:none;stroke:#000000;stroke-width:0.44299999;stroke-linecap:butt;stroke-linejoin:miter;stroke-miterlimit:4;stroke-dasharray:3.544, 1.772;stroke-dashoffset:0;stroke-opacity:1"
         id="path4505"
         inkscape:connector-curvature="0" /></g><g
       id="g4583"><g
         id="g4585"
         clip-path="url(#clipPath4587)"><g
           id="g4591"
           transform="translate(-17.28,702)"><path
             d="m 0,0 0,-24 m -36,-12 24,0 m 516,36 0,-24 m 36,-12 -24,0 M 0,-738 l 0,24 m -36,12 24,0 m 516,-36 0,24 m 36,12 -24,0"
             style="fill:none;stroke:#ffffff;stroke-width:0.5;stroke-linecap:butt;stroke-linejoin:miter;stroke-miterlimit:10;stroke-dasharray:none;stroke-opacity:1"
             id="path4593"
             inkscape:connector-curvature="0" /></g><g
           id="g4595"
           transform="translate(-17.28,702)"><path
             d="m 0,0 0,-24 m -36,-12 24,0 m 516,36 0,-24 m 36,-12 -24,0 M 0,-738 l 0,24 m -36,12 24,0 m 516,-36 0,24 m 36,12 -24,0"
             style="fill:none;stroke:#000000;stroke-width:0.25;stroke-linecap:butt;stroke-linejoin:miter;stroke-miterlimit:10;stroke-dasharray:none;stroke-opacity:1"
             id="path4597"
             inkscape:connector-curvature="0" /></g><g
           id="g4599"
           transform="translate(210.72,690)"><path
             d="m 0,0 48,0 m -48,-714 48,0 m -300,381 0,-48 m 552,48 0,-48 M 24,12 24,-12 m 0,-690 0,-24 m -288,369 24,0 m 528,0 24,0 M 24,0 30,0 c 0,-3.31 -2.69,-6 -6,-6 -3.31,0 -6,2.69 -6,6 0,3.31 2.69,6 6,6 3.31,0 6,-2.69 6,-6 m -6,-714 6,0 c 0,-3.312 -2.69,-6 -6,-6 -3.31,0 -6,2.688 -6,6 0,3.312 2.69,6 6,6 3.31,0 6,-2.688 6,-6 m -282,357 6,0 c 0,-3.31 -2.688,-6 -6,-6 -3.312,0 -6,2.69 -6,6 0,3.31 2.688,6 6,6 3.312,0 6,-2.69 6,-6 m 546,0 6,0 c 0,-3.31 -2.69,-6 -6,-6 -3.31,0 -6,2.69 -6,6 0,3.31 2.69,6 6,6 3.31,0 6,-2.69 6,-6"
             style="fill:none;stroke:#ffffff;stroke-width:0.5;stroke-linecap:butt;stroke-linejoin:miter;stroke-miterlimit:10;stroke-dasharray:none;stroke-opacity:1"
             id="path4601"
             inkscape:connector-curvature="0" /></g><g
           id="g4603"
           transform="translate(210.72,690)"><path
             d="m 0,0 48,0 m -48,-714 48,0 m -300,381 0,-48 m 552,48 0,-48 M 24,12 24,-12 m 0,-690 0,-24 m -288,369 24,0 m 528,0 24,0 M 24,0 30,0 c 0,-3.31 -2.69,-6 -6,-6 -3.31,0 -6,2.69 -6,6 0,3.31 2.69,6 6,6 3.31,0 6,-2.69 6,-6 m -6,-714 6,0 c 0,-3.312 -2.69,-6 -6,-6 -3.31,0 -6,2.688 -6,6 0,3.312 2.69,6 6,6 3.31,0 6,-2.688 6,-6 m -282,357 6,0 c 0,-3.31 -2.688,-6 -6,-6 -3.312,0 -6,2.69 -6,6 0,3.31 2.688,6 6,6 3.312,0 6,-2.69 6,-6 m 546,0 6,0 c 0,-3.31 -2.69,-6 -6,-6 -3.31,0 -6,2.69 -6,6 0,3.31 2.69,6 6,6 3.31,0 6,-2.69 6,-6"
             style="fill:none;stroke:#000000;stroke-width:0.25;stroke-linecap:butt;stroke-linejoin:miter;stroke-miterlimit:10;stroke-dasharray:none;stroke-opacity:1"
             id="path4605"
             inkscape:connector-curvature="0" /></g></g></g></g></svg>